<svg xmlns="http://www.w3.org/2000/svg" width="1024" height="1024" viewBox="0 0 1024 1024" role="img" aria-label="iPS-UU firmware restore utility icon">
  <defs>
    <linearGradient id="bg" x1="176" y1="112" x2="848" y2="912" gradientUnits="userSpaceOnUse">
      <stop offset="0" stop-color="#f8fafc"/>
      <stop offset="0.54" stop-color="#d8dee8"/>
      <stop offset="1" stop-color="#9aa5b4"/>
    </linearGradient>
    <linearGradient id="chip" x1="286" y1="274" x2="760" y2="752" gradientUnits="userSpaceOnUse">
      <stop offset="0" stop-color="#3c4656"/>
      <stop offset="1" stop-color="#151b24"/>
    </linearGradient>
    <linearGradient id="phone" x1="365" y1="206" x2="652" y2="818" gradientUnits="userSpaceOnUse">
      <stop offset="0" stop-color="#ffffff"/>
      <stop offset="0.2" stop-color="#edf1f6"/>
      <stop offset="1" stop-color="#b5bfcc"/>
    </linearGradient>
    <linearGradient id="screen" x1="406" y1="274" x2="620" y2="744" gradientUnits="userSpaceOnUse">
      <stop offset="0" stop-color="#243142"/>
      <stop offset="1" stop-color="#0d1219"/>
    </linearGradient>
    <linearGradient id="blue" x1="338" y1="254" x2="786" y2="762" gradientUnits="userSpaceOnUse">
      <stop offset="0" stop-color="#67a8ff"/>
      <stop offset="1" stop-color="#2f6fd7"/>
    </linearGradient>
    <filter id="shadow" x="-20%" y="-20%" width="140%" height="140%">
      <feDropShadow dx="0" dy="22" stdDeviation="28" flood-color="#1f2937" flood-opacity="0.24"/>
    </filter>
    <filter id="soft" x="-15%" y="-15%" width="130%" height="130%">
      <feDropShadow dx="0" dy="8" stdDeviation="10" flood-color="#0f172a" flood-opacity="0.18"/>
    </filter>
  </defs>

  <rect x="64" y="64" width="896" height="896" rx="214" fill="url(#bg)"/>
  <path d="M183 641c61 195 252 304 445 249 144-41 244-160 266-300" fill="none" stroke="#ffffff" stroke-width="34" stroke-linecap="round" opacity="0.48"/>
  <path d="M852 402C789 207 600 101 407 154 262 194 161 313 137 453" fill="none" stroke="#344155" stroke-width="42" stroke-linecap="round" opacity="0.22"/>
  <path d="M851 403C790 216 610 113 424 160" fill="none" stroke="url(#blue)" stroke-width="42" stroke-linecap="round"/>
  <path d="M433 133l-16 79 75-29z" fill="#5f9ff4"/>
  <path d="M179 643c62 184 241 286 424 241" fill="none" stroke="#536071" stroke-width="38" stroke-linecap="round" opacity="0.5"/>
  <path d="M596 891l18-79-76 27z" fill="#536071"/>

  <g filter="url(#shadow)">
    <rect x="268" y="279" width="488" height="488" rx="74" fill="url(#chip)"/>
    <rect x="323" y="334" width="378" height="378" rx="34" fill="#222b37" stroke="#778395" stroke-width="10"/>
    <g stroke="#596474" stroke-width="18" stroke-linecap="round">
      <path d="M268 372h-54M268 438h-54M268 504h-54M268 570h-54M268 636h-54"/>
      <path d="M756 372h54M756 438h54M756 504h54M756 570h54M756 636h54"/>
      <path d="M372 279v-54M438 279v-54M504 279v-54M570 279v-54M636 279v-54"/>
      <path d="M372 767v54M438 767v54M504 767v54M570 767v54M636 767v54"/>
    </g>
  </g>

  <g filter="url(#soft)">
    <rect x="364" y="197" width="296" height="630" rx="62" fill="url(#phone)" stroke="#ffffff" stroke-width="8"/>
    <rect x="397" y="256" width="230" height="508" rx="32" fill="url(#screen)"/>
    <rect x="462" y="223" width="100" height="12" rx="6" fill="#9aa5b4"/>
    <circle cx="512" cy="793" r="14" fill="#eef2f7" stroke="#9aa5b4" stroke-width="4"/>
  </g>

  <path d="M451 520h74c20 0 36-16 36-36v-68" fill="none" stroke="#dce8f8" stroke-width="20" stroke-linecap="round" stroke-linejoin="round"/>
  <path d="M532 406l29-30 30 30" fill="none" stroke="#dce8f8" stroke-width="20" stroke-linecap="round" stroke-linejoin="round"/>
  <rect x="430" y="560" width="164" height="96" rx="18" fill="#2f6fd7"/>
  <rect x="459" y="589" width="106" height="38" rx="9" fill="#eaf2ff"/>
  <g stroke="#97c2ff" stroke-width="10" stroke-linecap="round">
    <path d="M432 536h-42"/>
    <path d="M594 536h42"/>
    <path d="M512 559v-42"/>
  </g>
</svg>
