<svg xmlns="http://www.w3.org/2000/svg" width="1024" height="1024" viewBox="0 0 1024 1024" role="img" aria-label="iPS-UU dark mode icon">
  <defs>
    <linearGradient id="darkBg" x1="128" y1="104" x2="888" y2="920" gradientUnits="userSpaceOnUse">
      <stop offset="0" stop-color="#3b4350"/>
      <stop offset="1" stop-color="#0c1118"/>
    </linearGradient>
    <linearGradient id="darkPhone" x1="366" y1="198" x2="656" y2="822" gradientUnits="userSpaceOnUse">
      <stop offset="0" stop-color="#f8fafc"/>
      <stop offset="1" stop-color="#9aa5b4"/>
    </linearGradient>
    <linearGradient id="darkBlue" x1="332" y1="202" x2="810" y2="774" gradientUnits="userSpaceOnUse">
      <stop offset="0" stop-color="#8fc2ff"/>
      <stop offset="1" stop-color="#3b82f6"/>
    </linearGradient>
    <filter id="darkShadow" x="-20%" y="-20%" width="140%" height="140%">
      <feDropShadow dx="0" dy="26" stdDeviation="30" flood-color="#000000" flood-opacity="0.38"/>
    </filter>
  </defs>
  <rect x="64" y="64" width="896" height="896" rx="214" fill="url(#darkBg)"/>
  <path d="M851 403C790 216 610 113 424 160" fill="none" stroke="url(#darkBlue)" stroke-width="42" stroke-linecap="round"/>
  <path d="M433 133l-16 79 75-29z" fill="#8fc2ff"/>
  <path d="M179 643c62 184 241 286 424 241" fill="none" stroke="#b9c2ce" stroke-width="38" stroke-linecap="round" opacity="0.72"/>
  <path d="M596 891l18-79-76 27z" fill="#b9c2ce"/>
  <g filter="url(#darkShadow)">
    <rect x="268" y="279" width="488" height="488" rx="74" fill="#111827"/>
    <rect x="323" y="334" width="378" height="378" rx="34" fill="#202936" stroke="#64748b" stroke-width="10"/>
    <g stroke="#64748b" stroke-width="18" stroke-linecap="round">
      <path d="M268 372h-54M268 438h-54M268 504h-54M268 570h-54M268 636h-54"/>
      <path d="M756 372h54M756 438h54M756 504h54M756 570h54M756 636h54"/>
      <path d="M372 279v-54M438 279v-54M504 279v-54M570 279v-54M636 279v-54"/>
      <path d="M372 767v54M438 767v54M504 767v54M570 767v54M636 767v54"/>
    </g>
    <rect x="364" y="197" width="296" height="630" rx="62" fill="url(#darkPhone)" stroke="#ffffff" stroke-width="8"/>
    <rect x="397" y="256" width="230" height="508" rx="32" fill="#0b1119"/>
    <rect x="462" y="223" width="100" height="12" rx="6" fill="#94a3b8"/>
    <circle cx="512" cy="793" r="14" fill="#f8fafc" stroke="#94a3b8" stroke-width="4"/>
  </g>
  <path d="M451 520h74c20 0 36-16 36-36v-68" fill="none" stroke="#e8f2ff" stroke-width="20" stroke-linecap="round" stroke-linejoin="round"/>
  <path d="M532 406l29-30 30 30" fill="none" stroke="#e8f2ff" stroke-width="20" stroke-linecap="round" stroke-linejoin="round"/>
  <rect x="430" y="560" width="164" height="96" rx="18" fill="#3b82f6"/>
  <rect x="459" y="589" width="106" height="38" rx="9" fill="#eff6ff"/>
</svg>
